<?xml version="1.0" encoding="utf-8"?>
<!-- Generator: Adobe Illustrator 16.0.0, SVG Export Plug-In . SVG Version: 6.00 Build 0)  -->
<!DOCTYPE svg PUBLIC "-//W3C//DTD SVG 1.1//EN" "http://www.w3.org/Graphics/SVG/1.1/DTD/svg11.dtd">
<svg version="1.1" id="Capa_1" xmlns="http://www.w3.org/2000/svg" xmlns:xlink="http://www.w3.org/1999/xlink" x="0px" y="0px"
	 width="612px" height="792px" viewBox="0 0 612 792" enable-background="new 0 0 612 792" xml:space="preserve">
<g id="Menu">
	<path fill="#FFFFFF" d="M54.643,275.784h502.713c30.177,0,54.645-24.465,54.645-54.643s-24.465-54.643-54.645-54.643H54.643
		C24.465,166.501,0,190.964,0,221.144C0,251.322,24.465,275.784,54.643,275.784z M557.355,341.356H54.643
		C24.465,341.356,0,365.821,0,395.999c0,30.18,24.465,54.643,54.643,54.643h502.713c30.177,0,54.645-24.463,54.645-54.643
		C612,365.821,587.532,341.356,557.355,341.356z M557.355,516.213H54.643C24.465,516.213,0,540.676,0,570.855
		c0,30.178,24.465,54.643,54.643,54.643h502.713c30.177,0,54.645-24.465,54.645-54.643C612,540.676,587.532,516.213,557.355,516.213
		z"/>
</g>
</svg>
